<svg width="56" height="56" viewBox="0 0 56 56" fill="none" xmlns="http://www.w3.org/2000/svg">
<path d="M42.5059 56H13.4941C6.0416 56 0 49.9584 0 42.5059V13.4941C0 6.0416 6.0416 0 13.4941 0H42.5059C49.9584 0 56 6.0416 56 13.4941V42.5059C56 49.9584 49.9584 56 42.5059 56Z" fill="#EF6C23"/>
<path d="M24.8514 19.1576V15.6645C24.8514 15.1846 24.7598 14.7334 24.5779 14.3068C24.3947 13.8803 24.1459 13.5098 23.8287 13.1926C23.5129 12.8768 23.141 12.6266 22.7158 12.4447C22.2893 12.2615 21.8367 12.1699 21.3582 12.1699C20.8797 12.1699 20.4271 12.2615 20.0006 12.4447C19.5754 12.6266 19.2035 12.8768 18.8877 13.1926C18.5705 13.5098 18.3217 13.8803 18.1385 14.3068C17.9566 14.7334 17.865 15.1846 17.865 15.6645V19.1576H24.8514ZM28.3445 26.1316H24.8514V22.6385H17.865V26.1316H14.3828V15.6645C14.3828 14.6979 14.566 13.7914 14.9311 12.9438C15.2961 12.0947 15.7938 11.3551 16.4227 10.7221C17.0516 10.0891 17.7898 9.59004 18.6375 9.225C19.4852 8.85996 20.393 8.67676 21.3582 8.67676C22.3234 8.67676 23.2313 8.85996 24.0789 9.225C24.9266 9.59004 25.6676 10.0891 26.3006 10.7221C26.9336 11.3551 27.4326 12.0947 27.7977 12.9438C28.1627 13.7914 28.3445 14.6979 28.3445 15.6645" fill="white"/>
<path d="M36.3311 24.3867H39.8242V8.67773H36.3311V24.3867Z" fill="white"/>
<path d="M26.9232 38.2947C26.9232 37.5318 26.777 36.8113 26.4844 36.1346C26.1932 35.4564 25.7967 34.8686 25.2977 34.3695C24.7986 33.8705 24.2107 33.474 23.5326 33.1828C22.8559 32.8902 22.1354 32.7439 21.3725 32.7439C20.6014 32.7439 19.8795 32.8902 19.2055 33.1828C18.5328 33.474 17.9436 33.8705 17.4404 34.3695C16.9373 34.8686 16.5395 35.4564 16.2482 36.1346C15.9557 36.8113 15.8094 37.5318 15.8094 38.2947C15.8094 39.0576 15.9557 39.774 16.2482 40.4426C16.5395 41.1125 16.9373 41.699 17.4404 42.2021C17.9436 42.7053 18.5328 43.1031 19.2055 43.3943C19.8795 43.6869 20.6014 43.8332 21.3725 43.8332C22.1354 43.8332 22.8559 43.6869 23.5326 43.3943C24.2107 43.1031 24.7986 42.7053 25.2977 42.2021C25.7967 41.699 26.1932 41.1125 26.4844 40.4426C26.777 39.774 26.9232 39.0576 26.9232 38.2947ZM30.3918 38.2947C30.3918 39.1219 30.2852 39.9203 30.0691 40.6873C29.8545 41.4529 29.5523 42.1721 29.1627 42.8406C28.773 43.5105 28.3027 44.1217 27.7504 44.6727C27.1994 45.225 26.5896 45.698 25.9252 46.0904C25.2594 46.4842 24.5416 46.7891 23.7705 47.0037C22.9994 47.2184 22.1996 47.3264 21.3725 47.3264C20.5453 47.3264 19.7469 47.2184 18.9799 47.0037C18.2129 46.7891 17.4951 46.4842 16.8266 46.0904C16.1566 45.698 15.5455 45.225 14.9945 44.6727C14.4422 44.1217 13.9691 43.5105 13.5754 42.8406C13.1816 42.1721 12.8781 41.4529 12.6635 40.6873C12.4475 39.9203 12.3408 39.1219 12.3408 38.2947C12.3408 37.4676 12.4475 36.6678 12.6635 35.8967C12.8781 35.1256 13.1816 34.4078 13.5754 33.742C13.9691 33.0762 14.4422 32.4678 14.9945 31.9168C15.5455 31.3645 16.1566 30.8941 16.8266 30.5045C17.4951 30.1148 18.2129 29.8127 18.9799 29.5967C19.7469 29.382 20.5453 29.2754 21.3725 29.2754C22.1996 29.2754 22.9994 29.382 23.7705 29.5967C24.5416 29.8127 25.2594 30.1148 25.9252 30.5045C26.5896 30.8941 27.1994 31.3645 27.7504 31.9168C28.3027 32.4678 28.773 33.0762 29.1627 33.742C29.5523 34.4078 29.8545 35.1256 30.0691 35.8967C30.2852 36.6678 30.3918 37.4676 30.3918 38.2947Z" fill="white"/>
<path d="M34.0889 12.1709H42.076V8.67773H34.0889V12.1709Z" fill="white"/>
<path d="M34.0889 26.1338H42.076V22.6406H34.0889V26.1338Z" fill="white"/>
<path d="M36.3311 45.2676H39.8242V29.5586H36.3311V45.2676Z" fill="white"/>
<path d="M34.0889 33.0518H42.076V29.5586H34.0889V33.0518Z" fill="white"/>
<path d="M34.0889 47.0146H42.076V43.5215H34.0889V47.0146Z" fill="white"/>
<path d="M32.1543 32.2426C32.1543 32.6117 32.0859 32.959 31.9465 33.2844C31.807 33.6098 31.617 33.8941 31.3736 34.1361C31.1316 34.3795 30.8473 34.5709 30.5219 34.7117C30.1965 34.8525 29.8492 34.9236 29.4801 34.9236C29.3516 34.9236 29.2395 34.9469 29.141 34.992C29.0439 35.0371 28.9633 35.1 28.899 35.182C28.8348 35.2627 28.7855 35.357 28.7527 35.4637C28.7199 35.5717 28.7035 35.6879 28.7035 35.8123V36.2854H26.9248V35.7877C26.9289 35.4227 26.9945 35.0795 27.1203 34.7555C27.2475 34.4314 27.4225 34.1512 27.6494 33.9133C27.875 33.674 28.143 33.4854 28.4547 33.3473C28.765 33.2078 29.1068 33.1381 29.4801 33.1381C29.6045 33.1381 29.7207 33.1162 29.8287 33.0697C29.9367 33.0246 30.0311 32.9617 30.1117 32.8797C30.1924 32.799 30.2566 32.7047 30.3045 32.5939C30.3523 32.4846 30.3756 32.367 30.3756 32.2426C30.3756 32.1182 30.3523 32.002 30.3045 31.8953C30.2566 31.7873 30.1924 31.693 30.1117 31.6123C30.0311 31.5303 29.9367 31.4674 29.8287 31.4223C29.7207 31.3758 29.6045 31.3539 29.4801 31.3539H28.4711V29.5684H29.4801C29.8492 29.5684 30.1965 29.6395 30.5219 29.7803C30.8473 29.9211 31.1316 30.1125 31.3736 30.3559C31.617 30.5979 31.807 30.8809 31.9465 31.2049C32.0859 31.5275 32.1543 31.8734 32.1543 32.2426Z" fill="white"/>
</svg>
